<svg viewBox="0 0 90 90" xmlns="http://www.w3.org/2000/svg"><circle cx="45.16" cy="69.74" fill="#ffeb97" r="5.17"/><circle cx="69.12" cy="69.74" fill="#ffeb97" r="5.17"/><path d="m79.62 64a1.89 1.89 0 0 0 0 .34.6.6 0 0 1 -.6.6h-2.4a8.89 8.89 0 0 0 -14.94 0h-9a8.89 8.89 0 0 0 -14.94 0h-2.4a.6.6 0 0 1 -.6-.6 1.89 1.89 0 0 0 -.08-.55l-11.53-37.27h62.59a.6.6 0 0 1 .59.49z" fill="#ff8898"/><g fill="#576065"><path d="m38.11 68.57h-2.82a4.29 4.29 0 0 1 -4.27-4l-12.66-41.02c-.36-.62-4.56-7.71-14.76-8.48v2.36a1.8 1.8 0 1 1 -3.6 0v-4.22a1.8 1.8 0 0 1 1.8-1.8c12.75 0 18.94 8.5 19.9 10.78a1.63 1.63 0 0 1 .06.17l12.77 41.4a1.8 1.8 0 0 1 .08.53.68.68 0 0 0 .68.68h2.82a1.8 1.8 0 0 1 0 3.6z"/><path d="m62.07 68.57h-9.87a1.8 1.8 0 0 1 0-3.6h9.87a1.8 1.8 0 1 1 0 3.6z"/><path d="m79 68.57h-2.83a1.8 1.8 0 0 1 0-3.6h2.83a.68.68 0 0 0 .68-.68 1.78 1.78 0 0 1 0-.32l6.7-37a.68.68 0 0 0 -.67-.57h-64.18a1.8 1.8 0 0 1 0-3.6h64.19a4.28 4.28 0 0 1 4.28 4.32 1.78 1.78 0 0 1 0 .32l-6.71 37a4.29 4.29 0 0 1 -4.29 4.13z"/><path d="m45.16 78.59a8.85 8.85 0 1 1 8.84-8.85 8.86 8.86 0 0 1 -8.84 8.85zm0-14.1a5.25 5.25 0 1 0 5.25 5.25 5.25 5.25 0 0 0 -5.25-5.24z"/><path d="m69.12 78.59a8.85 8.85 0 1 1 8.88-8.85 8.86 8.86 0 0 1 -8.88 8.85zm0-14.1a5.25 5.25 0 1 0 5.25 5.25 5.25 5.25 0 0 0 -5.25-5.24z"/><path d="m76.51 37.32h-39.51a1.8 1.8 0 0 1 0-3.6h39.51a1.8 1.8 0 1 1 0 3.6z"/><path d="m75.1 46.17h-36.65a1.8 1.8 0 1 1 0-3.6h36.65a1.8 1.8 0 0 1 0 3.6z"/><path d="m73.69 55h-32.42a1.8 1.8 0 0 1 0-3.6h32.42a1.8 1.8 0 0 1 0 3.6z"/></g></svg>